<svg xmlns="http://www.w3.org/2000/svg" xmlns:xlink="http://www.w3.org/1999/xlink" width="679.766" height="486.518" viewBox="0 0 679.766 486.518">
  <defs>
    <clipPath id="clip-path">
      <path id="Path_2725" data-name="Path 2725" d="M1797.48,675.889v10.3c0-9.756-5.448-19.506-16.239-29.033-24.652-21.761-64.716-25.286-87.875-25.287q-1.177,0-2.292.012c-34.774.331-62.918,7.809-71.757,14.675v-10.3c8.839-6.867,36.983-14.345,71.757-14.676q1.116-.012,2.292-.012c23.159,0,63.223,3.526,87.875,25.287C1792.032,656.383,1797.48,666.133,1797.48,675.889Z" fill="#1a7e22"/>
    </clipPath>
    <clipPath id="clip-path-2">
      <path id="Path_2731" data-name="Path 2731" d="M1438.526,686.591v-10.3a24.342,24.342,0,0,1,1.488-8.475c6.4-17.275,29-38.371,73.235-45.773a167.915,167.915,0,0,1,27.845-2.293c31.3,0,58.5,8.459,78.223,16.511v10.3c-19.725-8.051-46.92-16.51-78.223-16.51a167.908,167.908,0,0,0-27.845,2.293c-44.236,7.4-66.836,28.5-73.235,45.773A24.337,24.337,0,0,0,1438.526,686.591Z" fill="#1a7e22"/>
    </clipPath>
    <clipPath id="clip-path-3">
      <path id="Path_2736" data-name="Path 2736" d="M1774.356,721.215v-10.3c13.781-10.423,21.451-20.953,22.881-31.455a26.309,26.309,0,0,0,.243-3.572v10.3a26.3,26.3,0,0,1-.243,3.571C1795.807,700.262,1788.137,710.792,1774.356,721.215Z" fill="#1a7e22"/>
    </clipPath>
    <clipPath id="clip-path-4">
      <path id="Path_2740" data-name="Path 2740" d="M1727.222,748.287c0-7.5,0-8.284-.027-10.29,9.284-4.95,16.738-8.889,20.953-11.049a200.675,200.675,0,0,0,19.573-11.34v10.3a200.48,200.48,0,0,1-19.573,11.339C1743.937,739.409,1736.493,743.343,1727.222,748.287Z" fill="#1a7e22"/>
    </clipPath>
    <clipPath id="clip-path-5">
      <path id="Path_2743" data-name="Path 2743" d="M1473.595,729.136c-25.957-14.011-35.066-29.946-35.069-42.539v-10.3c0,12.593,9.112,28.529,35.069,42.54,30.2,16.306,137.425,74.053,144.583,77.9v10.3C1611.02,803.19,1503.8,745.443,1473.595,729.136Z" fill="#1a7e22"/>
    </clipPath>
    <clipPath id="clip-path-6">
      <path id="Path_2746" data-name="Path 2746" d="M1727.222,748.287c-37.086,19.774-103.415,55.7-109.044,58.75v-10.3c5.628-3.046,71.926-38.959,109.017-58.736C1727.221,740,1727.221,740.783,1727.222,748.287Z" fill="#1a7e22"/>
    </clipPath>
    <clipPath id="clip-path-7">
      <path id="Path_2749" data-name="Path 2749" d="M1437.024,686.583v-10.3c0,13.047,9.3,29.459,35.825,43.776,31.249,16.88,144.95,78.1,145.709,78.1v10.3c-.759,0-114.46-61.225-145.709-78.1C1446.326,716.042,1437.024,699.63,1437.024,686.583Z" fill="#1a7e22"/>
    </clipPath>
    <clipPath id="clip-path-8">
      <path id="Path_2755" data-name="Path 2755" d="M1798.986,675.867v10.3a27.879,27.879,0,0,1-.257,3.766c-2.237,16.409-19.007,32.74-49.863,48.55-21.677,11.121-129.223,69.391-130.308,69.977v-10.3c1.085-.586,108.631-58.855,130.308-69.977,30.856-15.809,47.626-32.141,49.863-48.549A27.9,27.9,0,0,0,1798.986,675.867Z" fill="#1a7e22"/>
    </clipPath>
    <clipPath id="clip-path-9">
      <path id="Path_2762" data-name="Path 2762" d="M1279.455,778.078v-10.3c0-7.9,3.506-15.674,10.471-23.149,24.823-26.651,60.41-32.931,85.9-33.5,1.41-.038,2.806-.051,4.2-.051,28.578,0,53.685,6.433,63.324,10,20.62,7.631,149.682,80.512,163.035,88.054v10.3c-13.353-7.542-142.415-80.423-163.035-88.054-9.639-3.567-34.746-10-63.324-10-1.4,0-2.792.012-4.2.051-25.487.573-61.074,6.853-85.9,33.5C1282.961,762.405,1279.455,770.176,1279.455,778.078Z" fill="#1a7e22"/>
    </clipPath>
    <clipPath id="clip-path-10">
      <path id="Path_2765" data-name="Path 2765" d="M1279.84,782.625a27.184,27.184,0,0,1-.385-4.544v-10.3a27.181,27.181,0,0,0,.385,4.543c3.484,20.625,29.6,35.441,29.852,35.594v10.3C1309.435,818.066,1283.324,803.25,1279.84,782.625Z" fill="#1a7e22"/>
    </clipPath>
    <clipPath id="clip-path-11">
      <path id="Path_2768" data-name="Path 2768" d="M1277.954,778.05v-10.3a28.657,28.657,0,0,0,.409,4.805c3.185,18.879,24.565,32.931,29.526,35.963v10.3c-4.961-3.032-26.341-17.083-29.526-35.963A28.635,28.635,0,0,1,1277.954,778.05Z" fill="#1a7e22"/>
    </clipPath>
    <clipPath id="clip-path-12">
      <path id="Path_2777" data-name="Path 2777" d="M1280.861,859.421v-10.3c0-8.254,3.384-16.424,10.136-24.424a76,76,0,0,1,18.7-15.568v10.3A76.007,76.007,0,0,0,1291,835C1284.245,843,1280.861,851.167,1280.861,859.421Z" fill="#1a7e22"/>
    </clipPath>
    <clipPath id="clip-path-13">
      <path id="Path_2780" data-name="Path 2780" d="M1573.863,836.831v-10.3c17.043-9.138,28.94-15.49,32.521-17.4v10.3C1602.8,821.341,1590.906,827.693,1573.863,836.831Z" fill="#1a7e22"/>
    </clipPath>
    <clipPath id="clip-path-14">
      <path id="Path_2783" data-name="Path 2783" d="M1284.72,874.756a33.973,33.973,0,0,1-3.859-15.33v-10.3a33.973,33.973,0,0,0,3.859,15.33c6.345,12.65,24.891,24.523,49.578,31.772a189.355,189.355,0,0,0,52.357,7.226c26.2,0,54.721-5.259,80.527-19.316,40.06-21.813,79.78-43.182,106.681-57.607v10.3c-26.9,14.425-66.621,35.794-106.681,57.607-25.806,14.057-54.327,19.316-80.527,19.316a189.314,189.314,0,0,1-52.357-7.227C1309.611,899.279,1291.065,887.406,1284.72,874.756Z" fill="#1a7e22"/>
    </clipPath>
    <clipPath id="clip-path-15">
      <path id="Path_2786" data-name="Path 2786" d="M1279.419,859.521v-10.3a35.045,35.045,0,0,0,3.946,15.846c6.521,12.994,25.392,25.148,50.486,32.511a191.063,191.063,0,0,0,52.8,7.287c26.435,0,55.23-5.313,81.286-19.491,70.333-38.307,139.609-75.239,140.3-75.608v10.3c-.691.369-69.967,37.3-140.3,75.607-26.056,14.179-54.851,19.491-81.286,19.491a191.065,191.065,0,0,1-52.8-7.286c-25.094-7.364-43.965-19.517-50.486-32.511A35.045,35.045,0,0,1,1279.419,859.521Z" fill="#1a7e22"/>
    </clipPath>
    <clipPath id="clip-path-16">
      <path id="Path_2790" data-name="Path 2790" d="M1957.72,767.774v10.3a28.723,28.723,0,0,1-.4,4.777v-10.3A28.733,28.733,0,0,0,1957.72,767.774Z" fill="#1a7e22"/>
    </clipPath>
    <clipPath id="clip-path-17">
      <path id="Path_2793" data-name="Path 2793" d="M1956.211,767.775v10.3c0-7.9-3.507-15.674-10.472-23.149-13.692-14.714-39.721-32.473-85.883-33.5-1.44-.034-2.878-.05-4.3-.05-28.542,0-53.6,6.444-63.238,10-20.606,7.631-149.681,80.512-163.021,88.054v-10.3c13.34-7.542,142.415-80.423,163.021-88.054,9.633-3.555,34.7-10,63.238-10,1.424,0,2.862.016,4.3.049,46.162,1.032,72.191,18.79,85.883,33.5C1952.7,752.1,1956.211,759.873,1956.211,767.775Z" fill="#1a7e22"/>
    </clipPath>
    <clipPath id="clip-path-18">
      <path id="Path_2799" data-name="Path 2799" d="M1956.21,767.775v10.3a27.2,27.2,0,0,1-.385,4.546c-3.484,20.625-29.581,35.441-29.852,35.594v-10.3c.271-.153,26.368-14.969,29.852-35.594A27.2,27.2,0,0,0,1956.21,767.775Z" fill="#1a7e22"/>
    </clipPath>
    <clipPath id="clip-path-19">
      <path id="Path_2805" data-name="Path 2805" d="M1957.317,772.551v10.3c-1.885,11.147-10.114,20.5-16.675,26.4a90.275,90.275,0,0,1-12.865,9.567v-10.3a90.275,90.275,0,0,0,12.865-9.567C1947.2,793.048,1955.432,783.7,1957.317,772.551Z" fill="#1a7e22"/>
    </clipPath>
    <clipPath id="clip-path-20">
      <path id="Path_2811" data-name="Path 2811" d="M1954.814,849.11v10.3c0-8.251-3.387-16.42-10.146-24.418a76.321,76.321,0,0,0-18.681-15.567v-10.3a76.313,76.313,0,0,1,18.681,15.568C1951.427,832.69,1954.814,840.859,1954.814,849.11Z" fill="#1a7e22"/>
    </clipPath>
    <clipPath id="clip-path-21">
      <path id="Path_2817" data-name="Path 2817" d="M1954.814,849.11v10.3a33.918,33.918,0,0,1-3.869,15.342c-6.345,12.65-24.877,24.523-49.578,31.771a189.262,189.262,0,0,1-52.357,7.227c-26.2,0-54.723-5.261-80.527-19.316-65.439-35.632-129.969-70.079-139.188-75.009v-10.3c9.219,4.93,73.749,39.377,139.188,75.009,25.8,14.055,54.33,19.316,80.527,19.316a189.3,189.3,0,0,0,52.357-7.226c24.7-7.249,43.233-19.122,49.578-31.772A33.919,33.919,0,0,0,1954.814,849.11Z" fill="#1a7e22"/>
    </clipPath>
    <clipPath id="clip-path-22">
      <path id="Path_2823" data-name="Path 2823" d="M1956.25,849.229v10.3a35.075,35.075,0,0,1-3.936,15.834c-6.534,12.994-25.4,25.148-50.5,32.511a191.062,191.062,0,0,1-52.8,7.287c-26.436,0-55.23-5.313-81.287-19.492-70.333-38.306-139.608-75.238-140.3-75.607v-10.3c.692.369,69.967,37.3,140.3,75.608,26.057,14.178,54.851,19.491,81.287,19.491a191.062,191.062,0,0,0,52.8-7.287c25.094-7.363,43.965-19.517,50.5-32.511A35.072,35.072,0,0,0,1956.25,849.229Z" fill="#1a7e22"/>
    </clipPath>
    <clipPath id="clip-path-23">
      <path id="Path_2829" data-name="Path 2829" d="M1822.879,971.6l-.817,13.518c1.984-32.817-24.543-60.466-54.522-80.328l.817-13.518C1798.336,911.137,1824.863,938.787,1822.879,971.6Z" fill="none"/>
    </clipPath>
    <clipPath id="clip-path-24">
      <path id="Path_2832" data-name="Path 2832" d="M1896.1,1007.11l-.817,13.519a116.573,116.573,0,0,1-3.072,20.037l.817-13.519A116.557,116.557,0,0,0,1896.1,1007.11Z" fill="none"/>
    </clipPath>
    <clipPath id="clip-path-25">
      <path id="Path_2846" data-name="Path 2846" d="M1797.492,936.573v10.3c0-12.6-9.108-28.533-35.069-42.546-30.2-16.306-137.425-74.053-144.583-77.9v-10.3c7.158,3.847,114.379,61.594,144.583,77.9C1788.384,908.04,1797.492,923.979,1797.492,936.573Z" fill="#1a7e22"/>
    </clipPath>
    <clipPath id="clip-path-26">
      <path id="Path_2852" data-name="Path 2852" d="M1438.538,947.274v-10.3a26.4,26.4,0,0,1,.243-3.567c2.169-15.924,18.695-31.9,49.089-47.492,21.054-10.79,122.934-65.976,129.97-69.785v10.3c-7.036,3.809-108.916,58.995-129.97,69.785-30.394,15.593-46.92,31.568-49.089,47.492A26.391,26.391,0,0,0,1438.538,947.274Z" fill="#1a7e22"/>
    </clipPath>
    <clipPath id="clip-path-27">
      <path id="Path_2857" data-name="Path 2857" d="M1772.875,982.428v-10.3c12.4-8.472,19.867-18.27,23.129-27.076a24.344,24.344,0,0,0,1.488-8.479v10.3a24.345,24.345,0,0,1-1.488,8.479C1792.742,964.157,1785.274,973.956,1772.875,982.428Z" fill="#1a7e22"/>
    </clipPath>
    <clipPath id="clip-path-28">
      <path id="Path_2860" data-name="Path 2860" d="M1617.172,987.029v-10.3c.107-.074.212-.149.315-.224v10.3C1617.384,986.88,1617.279,986.954,1617.172,987.029Z" fill="#1a7e22"/>
    </clipPath>
    <clipPath id="clip-path-29">
      <path id="Path_2864" data-name="Path 2864" d="M1617.172,987.029c-7.408,5.159-24.868,10.552-47.577,13.085v-10.3c22.709-2.533,40.169-7.926,47.577-13.085v10.3Z" fill="#1a7e22"/>
    </clipPath>
    <clipPath id="clip-path-30">
      <path id="Path_2867" data-name="Path 2867" d="M1454.778,976.308c-10.791-9.527-16.24-19.276-16.24-29.032v-10.3c0,9.755,5.449,19.505,16.24,29.031,24.727,21.828,64.926,25.284,88.086,25.284.711,0,1.4,0,2.08-.009q1.436-.013,2.854-.043v10.3q-1.419.03-2.854.044c-.678.006-1.369.009-2.08.009C1519.7,1001.592,1479.505,998.136,1454.778,976.308Z" fill="#1a7e22"/>
    </clipPath>
    <clipPath id="clip-path-31">
      <path id="Path_2871" data-name="Path 2871" d="M1437.033,947.291v-10.3c0,10.149,5.613,20.24,16.715,30.049,21.734,19.186,56.423,25.78,88.581,25.78,33.734,0,64.683-7.258,74.955-14.85v10.3c-10.272,7.592-41.221,14.85-74.955,14.85-32.158,0-66.847-6.594-88.581-25.78C1442.646,967.531,1437.033,957.44,1437.033,947.291Z" fill="#1a7e22"/>
    </clipPath>
    <clipPath id="clip-path-32">
      <path id="Path_2874" data-name="Path 2874" d="M1693.466,1003.413c-30.688-.255-57.342-8.577-75.979-16.608V976.5c18.637,8.031,45.291,16.353,75.979,16.608v10.3Z" fill="#1a7e22"/>
    </clipPath>
    <clipPath id="clip-path-33">
      <path id="Path_2878" data-name="Path 2878" d="M1693.466,1003.413v-10.3q.725.006,1.45.006a168.622,168.622,0,0,0,27.854-2.295c21.693-3.628,38.18-10.548,50.1-18.7v10.3c-11.925,8.147-28.412,15.068-50.1,18.7a168.622,168.622,0,0,1-27.854,2.295Q1694.19,1003.419,1693.466,1003.413Z" fill="#1a7e22"/>
    </clipPath>
    <clipPath id="clip-path-34">
      <path id="Path_2885" data-name="Path 2885" d="M1798.994,936.58v10.3a25.656,25.656,0,0,1-1.567,8.927c-6.534,17.656-29.513,39.2-74.386,46.7a170.033,170.033,0,0,1-28.117,2.318c-31.344,0-58.579-8.4-77.64-16.561v-10.3c19.061,8.166,46.3,16.561,77.64,16.561a169.92,169.92,0,0,0,28.117-2.318c44.873-7.5,67.852-29.046,74.386-46.7A25.657,25.657,0,0,0,1798.994,936.58Z" fill="#1a7e22"/>
    </clipPath>
  </defs>
  <g id="Group_3310" data-name="Group 3310" transform="translate(-1277.954 -555.482)">
    <g id="Group_3274" data-name="Group 3274">
      <g id="Group_3248" data-name="Group 3248">
        <g id="Group_3247" data-name="Group 3247" style="isolation: isolate">
          <g id="Group_3246" data-name="Group 3246">
            <g id="Group_3191" data-name="Group 3191">
              <g id="Group_3190" data-name="Group 3190" style="isolation: isolate">
                <g id="Group_3167" data-name="Group 3167" style="isolation: isolate">
                  <path id="Path_2722" data-name="Path 2722" d="M1797.48,675.889v10.3c0-9.756-5.448-19.506-16.239-29.033-24.652-21.761-64.716-25.286-87.875-25.287q-1.177,0-2.292.012c-34.774.331-62.918,7.809-71.757,14.675v-10.3c8.839-6.867,36.983-14.345,71.757-14.676q1.116-.012,2.292-.012c23.159,0,63.223,3.526,87.875,25.287C1792.032,656.383,1797.48,666.133,1797.48,675.889Z" fill="#1a7e22"/>
                  <g id="Group_3166" data-name="Group 3166" clip-path="url(#clip-path)">
                    <g id="Group_3165" data-name="Group 3165" style="isolation: isolate">
                      <path id="Path_2723" data-name="Path 2723" d="M1797.48,675.889v10.3c0-9.756-5.448-19.506-16.239-29.033-24.652-21.761-64.716-25.286-87.875-25.287q-1.177,0-2.292.012c-32.583.31-59.346,6.9-69.86,13.373v-10.3c10.514-6.478,37.277-13.063,69.86-13.373q1.116-.012,2.292-.012c23.159,0,63.223,3.526,87.875,25.287,10.791,9.527,16.239,19.277,16.239,29.033" fill="#1a7e22"/>
                      <path id="Path_2724" data-name="Path 2724" d="M1621.214,634.954v10.3a21.386,21.386,0,0,0-1.9,1.3v-10.3a21.166,21.166,0,0,1,1.9-1.3" fill="#1a7e22"/>
                    </g>
                  </g>
                </g>
                <g id="Group_3170" data-name="Group 3170" style="isolation: isolate">
                  <path id="Path_2726" data-name="Path 2726" d="M1438.526,686.591v-10.3a24.342,24.342,0,0,1,1.488-8.475c6.4-17.275,29-38.371,73.235-45.773a167.915,167.915,0,0,1,27.845-2.293c31.3,0,58.5,8.459,78.223,16.511v10.3c-19.725-8.051-46.92-16.51-78.223-16.51a167.908,167.908,0,0,0-27.845,2.293c-44.236,7.4-66.836,28.5-73.235,45.773A24.337,24.337,0,0,0,1438.526,686.591Z" fill="#1a7e22"/>
                  <g id="Group_3169" data-name="Group 3169" clip-path="url(#clip-path-2)">
                    <g id="Group_3168" data-name="Group 3168" style="isolation: isolate">
                      <path id="Path_2727" data-name="Path 2727" d="M1619.317,636.257v10.3c-19.725-8.051-46.92-16.51-78.223-16.51a167.908,167.908,0,0,0-27.845,2.293c-19.685,3.294-35.086,9.3-46.681,16.473v-10.3c11.595-7.174,27-13.18,46.681-16.474a167.915,167.915,0,0,1,27.845-2.293c31.3,0,58.5,8.459,78.223,16.511" fill="#1a7e22"/>
                      <path id="Path_2728" data-name="Path 2728" d="M1466.568,638.513v10.3a77.891,77.891,0,0,0-16.044,12.946v-10.3a77.918,77.918,0,0,1,16.044-12.945" fill="#1a7e22"/>
                      <path id="Path_2729" data-name="Path 2729" d="M1450.524,651.458v10.3a53.484,53.484,0,0,0-8.657,12.138V663.6a53.487,53.487,0,0,1,8.657-12.138" fill="#1a7e22"/>
                      <path id="Path_2730" data-name="Path 2730" d="M1441.867,663.6v10.3a39.921,39.921,0,0,0-1.853,4.216,24.337,24.337,0,0,0-1.488,8.475v-10.3a24.342,24.342,0,0,1,1.488-8.475,39.926,39.926,0,0,1,1.853-4.216" fill="#1a7e22"/>
                    </g>
                  </g>
                </g>
                <g id="Group_3173" data-name="Group 3173" style="isolation: isolate">
                  <path id="Path_2732" data-name="Path 2732" d="M1774.356,721.215v-10.3c13.781-10.423,21.451-20.953,22.881-31.455a26.309,26.309,0,0,0,.243-3.572v10.3a26.3,26.3,0,0,1-.243,3.571C1795.807,700.262,1788.137,710.792,1774.356,721.215Z" fill="#1a7e22"/>
                  <g id="Group_3172" data-name="Group 3172" clip-path="url(#clip-path-3)">
                    <g id="Group_3171" data-name="Group 3171" style="isolation: isolate">
                      <path id="Path_2733" data-name="Path 2733" d="M1797.48,675.89v10.3a26.368,26.368,0,0,1-.243,3.566,31.084,31.084,0,0,1-3.2,9.911v-10.3a31.079,31.079,0,0,0,3.2-9.91,26.39,26.39,0,0,0,.243-3.566" fill="#1a7e22"/>
                      <path id="Path_2734" data-name="Path 2734" d="M1794.042,689.366v10.3a50,50,0,0,1-8.151,11.311v-10.3a50,50,0,0,0,8.151-11.311" fill="#1a7e22"/>
                      <path id="Path_2735" data-name="Path 2735" d="M1785.891,700.677v10.3q-8.364,8.962-22.7,17.838v-10.3q14.329-8.862,22.7-17.838" fill="#1a7e22"/>
                    </g>
                  </g>
                </g>
                <g id="Group_3176" data-name="Group 3176" style="isolation: isolate">
                  <path id="Path_2737" data-name="Path 2737" d="M1727.222,748.287c0-7.5,0-8.284-.027-10.29,9.284-4.95,16.738-8.889,20.953-11.049a200.675,200.675,0,0,0,19.573-11.34v10.3a200.48,200.48,0,0,1-19.573,11.339C1743.937,739.409,1736.493,743.343,1727.222,748.287Z" fill="#1a7e22"/>
                  <g id="Group_3175" data-name="Group 3175" clip-path="url(#clip-path-4)">
                    <g id="Group_3174" data-name="Group 3174" style="isolation: isolate">
                      <path id="Path_2738" data-name="Path 2738" d="M1785.891,700.677v10.3q-8.364,8.962-22.7,17.838v-10.3q14.329-8.862,22.7-17.838" fill="#1a7e22"/>
                      <path id="Path_2739" data-name="Path 2739" d="M1763.186,718.515v10.3q-6.843,4.233-15.038,8.432c-21.054,10.791-122.934,65.977-129.97,69.786v-10.3c7.036-3.809,108.916-58.995,129.97-69.785q8.193-4.2,15.038-8.433" fill="#1a7e22"/>
                    </g>
                  </g>
                </g>
                <g id="Group_3179" data-name="Group 3179" style="isolation: isolate">
                  <path id="Path_2741" data-name="Path 2741" d="M1473.595,729.136c-25.957-14.011-35.066-29.946-35.069-42.539v-10.3c0,12.593,9.112,28.529,35.069,42.54,30.2,16.306,137.425,74.053,144.583,77.9v10.3C1611.02,803.19,1503.8,745.443,1473.595,729.136Z" fill="#1a7e22"/>
                  <g id="Group_3178" data-name="Group 3178" clip-path="url(#clip-path-5)">
                    <g id="Group_3177" data-name="Group 3177" style="isolation: isolate">
                      <path id="Path_2742" data-name="Path 2742" d="M1618.178,796.733v10.3c-7.158-3.847-114.379-61.594-144.583-77.9-25.961-14.013-35.069-29.951-35.069-42.545v-10.3c0,12.594,9.108,28.532,35.069,42.546,30.2,16.306,137.425,74.053,144.583,77.9" fill="#1a7e22"/>
                    </g>
                  </g>
                </g>
                <g id="Group_3182" data-name="Group 3182" style="isolation: isolate">
                  <path id="Path_2744" data-name="Path 2744" d="M1727.222,748.287c-37.086,19.774-103.415,55.7-109.044,58.75v-10.3c5.628-3.046,71.926-38.959,109.017-58.736C1727.221,740,1727.221,740.783,1727.222,748.287Z" fill="#1a7e22"/>
                  <g id="Group_3181" data-name="Group 3181" clip-path="url(#clip-path-6)">
                    <g id="Group_3180" data-name="Group 3180" style="isolation: isolate">
                      <path id="Path_2745" data-name="Path 2745" d="M1763.186,718.515v10.3q-6.843,4.233-15.038,8.432c-21.054,10.791-122.934,65.977-129.97,69.786v-10.3c7.036-3.809,108.916-58.995,129.97-69.785q8.193-4.2,15.038-8.433" fill="#1a7e22"/>
                    </g>
                  </g>
                </g>
                <g id="Group_3185" data-name="Group 3185" style="isolation: isolate">
                  <path id="Path_2747" data-name="Path 2747" d="M1437.024,686.583v-10.3c0,13.047,9.3,29.459,35.825,43.776,31.249,16.88,144.95,78.1,145.709,78.1v10.3c-.759,0-114.46-61.225-145.709-78.1C1446.326,716.042,1437.024,699.63,1437.024,686.583Z" fill="#1a7e22"/>
                  <g id="Group_3184" data-name="Group 3184" clip-path="url(#clip-path-7)">
                    <g id="Group_3183" data-name="Group 3183" style="isolation: isolate">
                      <path id="Path_2748" data-name="Path 2748" d="M1618.558,798.16v10.3c-.759,0-114.46-61.225-145.709-78.1-26.523-14.317-35.825-30.729-35.825-43.776v-10.3c0,13.047,9.3,29.459,35.825,43.776,31.249,16.88,144.95,78.1,145.709,78.1" fill="#1a7e22"/>
                    </g>
                  </g>
                </g>
                <g id="Group_3188" data-name="Group 3188" style="isolation: isolate">
                  <path id="Path_2750" data-name="Path 2750" d="M1798.986,675.867v10.3a27.879,27.879,0,0,1-.257,3.766c-2.237,16.409-19.007,32.74-49.863,48.55-21.677,11.121-129.223,69.391-130.308,69.977v-10.3c1.085-.586,108.631-58.855,130.308-69.977,30.856-15.809,47.626-32.141,49.863-48.549A27.9,27.9,0,0,0,1798.986,675.867Z" fill="#1a7e22"/>
                  <g id="Group_3187" data-name="Group 3187" clip-path="url(#clip-path-8)">
                    <g id="Group_3186" data-name="Group 3186" style="isolation: isolate">
                      <path id="Path_2751" data-name="Path 2751" d="M1798.986,675.867v10.3a27.879,27.879,0,0,1-.257,3.766,32.36,32.36,0,0,1-3.322,10.313v-10.3a32.363,32.363,0,0,0,3.322-10.312,27.9,27.9,0,0,0,.257-3.767" fill="#1a7e22"/>
                      <path id="Path_2752" data-name="Path 2752" d="M1795.407,689.946v10.3a51.456,51.456,0,0,1-8.383,11.641v-10.3a51.461,51.461,0,0,0,8.383-11.642" fill="#1a7e22"/>
                      <path id="Path_2753" data-name="Path 2753" d="M1787.024,701.588v10.3q-8.52,9.133-23.053,18.125v-10.3q14.522-8.982,23.053-18.125" fill="#1a7e22"/>
                      <path id="Path_2754" data-name="Path 2754" d="M1763.971,719.713v10.3q-6.883,4.258-15.1,8.471c-21.677,11.121-129.223,69.391-130.308,69.977v-10.3c1.085-.586,108.631-58.855,130.308-69.977q8.222-4.212,15.1-8.47" fill="#1a7e22"/>
                    </g>
                  </g>
                </g>
                <g id="Group_3189" data-name="Group 3189">
                  <path id="Path_2756" data-name="Path 2756" d="M1782.271,645.824c12.486,11.019,18.017,22.4,16.458,33.81-2.237,16.408-19.007,32.74-49.863,48.549-21.677,11.122-129.223,69.391-130.308,69.977-.759,0-114.46-61.225-145.709-78.1-33.038-17.835-39.356-38.918-34.258-52.7,6.534-17.656,29.513-39.2,74.386-46.7a170.264,170.264,0,0,1,28.125-2.318c31.335,0,58.568,8.4,77.632,16.561,10.279-7.592,41.228-14.85,74.961-14.85C1725.851,620.043,1760.536,626.637,1782.271,645.824Zm14.966,33.631c1.492-10.943-3.89-21.911-16-32.6-24.652-21.761-64.716-25.286-87.875-25.287q-1.177,0-2.292.012c-34.774.331-62.918,7.809-71.757,14.676-19.725-8.052-46.92-16.511-78.223-16.511a167.915,167.915,0,0,0-27.845,2.293c-44.236,7.4-66.836,28.5-73.235,45.773-4.907,13.248,1.342,33.619,33.581,51.02,30.2,16.307,137.425,74.054,144.584,77.9,7.036-3.809,108.915-58.995,129.969-69.785,30.408-15.581,46.92-31.569,49.089-47.493" fill="#1a7e22"/>
                </g>
              </g>
            </g>
            <g id="Group_3218" data-name="Group 3218">
              <g id="Group_3217" data-name="Group 3217" style="isolation: isolate">
                <g id="Group_3194" data-name="Group 3194" style="isolation: isolate">
                  <path id="Path_2757" data-name="Path 2757" d="M1279.455,778.078v-10.3c0-7.9,3.506-15.674,10.471-23.149,24.823-26.651,60.41-32.931,85.9-33.5,1.41-.038,2.806-.051,4.2-.051,28.578,0,53.685,6.433,63.324,10,20.62,7.631,149.682,80.512,163.035,88.054v10.3c-13.353-7.542-142.415-80.423-163.035-88.054-9.639-3.567-34.746-10-63.324-10-1.4,0-2.792.012-4.2.051-25.487.573-61.074,6.853-85.9,33.5C1282.961,762.405,1279.455,770.176,1279.455,778.078Z" fill="#1a7e22"/>
                  <g id="Group_3193" data-name="Group 3193" clip-path="url(#clip-path-9)">
                    <g id="Group_3192" data-name="Group 3192" style="isolation: isolate">
                      <path id="Path_2758" data-name="Path 2758" d="M1606.384,809.125v10.3c-13.353-7.542-142.415-80.423-163.035-88.054-9.639-3.567-34.746-10-63.324-10-1.4,0-2.792.012-4.2.051-19.422.436-44.709,4.187-66.628,17.741v-10.3c21.919-13.554,47.206-17.3,66.628-17.741,1.41-.038,2.806-.051,4.2-.051,28.578,0,53.685,6.433,63.324,10,20.62,7.631,149.682,80.512,163.035,88.054" fill="#1a7e22"/>
                      <path id="Path_2759" data-name="Path 2759" d="M1309.195,728.863v10.3a93.222,93.222,0,0,0-19.221,15.711v-10.3a93.222,93.222,0,0,1,19.221-15.711" fill="#1a7e22"/>
                      <path id="Path_2760" data-name="Path 2760" d="M1289.974,744.574v10.3l-.048.052a44.16,44.16,0,0,0-7.174,10.013v-10.3a44.183,44.183,0,0,1,7.174-10.013l.048-.052" fill="#1a7e22"/>
                      <path id="Path_2761" data-name="Path 2761" d="M1282.752,754.639v10.3a28.744,28.744,0,0,0-3.3,13.135v-10.3a28.745,28.745,0,0,1,3.3-13.136" fill="#1a7e22"/>
                    </g>
                  </g>
                </g>
                <g id="Group_3197" data-name="Group 3197" style="isolation: isolate">
                  <path id="Path_2763" data-name="Path 2763" d="M1279.84,782.625a27.184,27.184,0,0,1-.385-4.544v-10.3a27.181,27.181,0,0,0,.385,4.543c3.484,20.625,29.6,35.441,29.852,35.594v10.3C1309.435,818.066,1283.324,803.25,1279.84,782.625Z" fill="#1a7e22"/>
                  <g id="Group_3196" data-name="Group 3196" clip-path="url(#clip-path-10)">
                    <g id="Group_3195" data-name="Group 3195" style="isolation: isolate">
                      <path id="Path_2764" data-name="Path 2764" d="M1309.692,807.915v10.3c-.257-.153-26.368-14.969-29.852-35.594a27.216,27.216,0,0,1-.385-4.546v-10.3a27.216,27.216,0,0,0,.385,4.546c3.484,20.625,29.6,35.441,29.852,35.594" fill="#1a7e22"/>
                    </g>
                  </g>
                </g>
                <g id="Group_3200" data-name="Group 3200" style="isolation: isolate">
                  <path id="Path_2766" data-name="Path 2766" d="M1277.954,778.05v-10.3a28.657,28.657,0,0,0,.409,4.805c3.185,18.879,24.565,32.931,29.526,35.963v10.3c-4.961-3.032-26.341-17.083-29.526-35.963A28.635,28.635,0,0,1,1277.954,778.05Z" fill="#1a7e22"/>
                  <g id="Group_3199" data-name="Group 3199" clip-path="url(#clip-path-11)">
                    <g id="Group_3198" data-name="Group 3198" style="isolation: isolate">
                      <path id="Path_2767" data-name="Path 2767" d="M1307.889,808.514v10.3c-4.961-3.032-26.341-17.083-29.526-35.963a28.635,28.635,0,0,1-.409-4.8v-10.3a28.657,28.657,0,0,0,.409,4.805c3.185,18.879,24.565,32.931,29.526,35.963" fill="#1a7e22"/>
                    </g>
                  </g>
                </g>
                <g id="Group_3201" data-name="Group 3201">
                  <path id="Path_2769" data-name="Path 2769" d="M1310.79,808.526v10.3l-1.1-.612v-10.3Z" fill="#1a7e22"/>
                </g>
                <g id="Group_3202" data-name="Group 3202">
                  <path id="Path_2770" data-name="Path 2770" d="M1310.79,808.526v10.3l-1.1.6v-10.3Z" fill="#1a7e22"/>
                </g>
                <g id="Group_3203" data-name="Group 3203">
                  <path id="Path_2771" data-name="Path 2771" d="M1609.366,809.163v10.3l-1.125.6v-10.3Z" fill="#1a7e22"/>
                </g>
                <g id="Group_3206" data-name="Group 3206" style="isolation: isolate">
                  <path id="Path_2772" data-name="Path 2772" d="M1280.861,859.421v-10.3c0-8.254,3.384-16.424,10.136-24.424a76,76,0,0,1,18.7-15.568v10.3A76.007,76.007,0,0,0,1291,835C1284.245,843,1280.861,851.167,1280.861,859.421Z" fill="#1a7e22"/>
                  <g id="Group_3205" data-name="Group 3205" clip-path="url(#clip-path-12)">
                    <g id="Group_3204" data-name="Group 3204" style="isolation: isolate">
                      <path id="Path_2773" data-name="Path 2773" d="M1309.692,809.125v10.3c-.023.014-.528.295-1.387.827v-10.3c.859-.531,1.364-.813,1.387-.827" fill="#1a7e22"/>
                      <path id="Path_2774" data-name="Path 2774" d="M1308.305,809.952v10.3a77.921,77.921,0,0,0-15.32,12.505v-10.3a77.955,77.955,0,0,1,15.32-12.5" fill="#1a7e22"/>
                      <path id="Path_2775" data-name="Path 2775" d="M1292.985,822.457v10.3c-.672.72-1.337,1.465-1.988,2.235a49.38,49.38,0,0,0-6.353,9.415v-10.3a49.374,49.374,0,0,1,6.353-9.414c.651-.771,1.316-1.516,1.988-2.236" fill="#1a7e22"/>
                      <path id="Path_2776" data-name="Path 2776" d="M1284.644,834.107v10.3a32.848,32.848,0,0,0-3.783,15.01v-10.3a32.848,32.848,0,0,1,3.783-15.01" fill="#1a7e22"/>
                    </g>
                  </g>
                </g>
                <g id="Group_3209" data-name="Group 3209" style="isolation: isolate">
                  <path id="Path_2778" data-name="Path 2778" d="M1573.863,836.831v-10.3c17.043-9.138,28.94-15.49,32.521-17.4v10.3C1602.8,821.341,1590.906,827.693,1573.863,836.831Z" fill="#1a7e22"/>
                  <g id="Group_3208" data-name="Group 3208" clip-path="url(#clip-path-13)">
                    <g id="Group_3207" data-name="Group 3207" style="isolation: isolate">
                      <path id="Path_2779" data-name="Path 2779" d="M1606.384,809.125v10.3c-9.232,4.93-73.763,39.377-139.2,75.009-25.806,14.057-54.327,19.316-80.527,19.316a189.314,189.314,0,0,1-52.357-7.227c-24.687-7.248-43.233-19.121-49.578-31.771a33.966,33.966,0,0,1-3.859-15.335v-10.3a33.962,33.962,0,0,0,3.859,15.334c6.345,12.65,24.891,24.523,49.578,31.772a189.355,189.355,0,0,0,52.357,7.226c26.2,0,54.721-5.259,80.527-19.316,65.439-35.632,129.97-70.079,139.2-75.009" fill="#1a7e22"/>
                    </g>
                  </g>
                </g>
                <g id="Group_3212" data-name="Group 3212" style="isolation: isolate">
                  <path id="Path_2781" data-name="Path 2781" d="M1284.72,874.756a33.973,33.973,0,0,1-3.859-15.33v-10.3a33.973,33.973,0,0,0,3.859,15.33c6.345,12.65,24.891,24.523,49.578,31.772a189.355,189.355,0,0,0,52.357,7.226c26.2,0,54.721-5.259,80.527-19.316,40.06-21.813,79.78-43.182,106.681-57.607v10.3c-26.9,14.425-66.621,35.794-106.681,57.607-25.806,14.057-54.327,19.316-80.527,19.316a189.314,189.314,0,0,1-52.357-7.227C1309.611,899.279,1291.065,887.406,1284.72,874.756Z" fill="#1a7e22"/>
                  <g id="Group_3211" data-name="Group 3211" clip-path="url(#clip-path-14)">
                    <g id="Group_3210" data-name="Group 3210" style="isolation: isolate">
                      <path id="Path_2782" data-name="Path 2782" d="M1606.384,809.125v10.3c-9.232,4.93-73.763,39.377-139.2,75.009-25.806,14.057-54.327,19.316-80.527,19.316a189.314,189.314,0,0,1-52.357-7.227c-24.687-7.248-43.233-19.121-49.578-31.771a33.966,33.966,0,0,1-3.859-15.335v-10.3a33.962,33.962,0,0,0,3.859,15.334c6.345,12.65,24.891,24.523,49.578,31.772a189.355,189.355,0,0,0,52.357,7.226c26.2,0,54.721-5.259,80.527-19.316,65.439-35.632,129.97-70.079,139.2-75.009" fill="#1a7e22"/>
                    </g>
                  </g>
                </g>
                <g id="Group_3215" data-name="Group 3215" style="isolation: isolate">
                  <path id="Path_2784" data-name="Path 2784" d="M1279.419,859.521v-10.3a35.045,35.045,0,0,0,3.946,15.846c6.521,12.994,25.392,25.148,50.486,32.511a191.063,191.063,0,0,0,52.8,7.287c26.435,0,55.23-5.313,81.286-19.491,70.333-38.307,139.609-75.239,140.3-75.608v10.3c-.691.369-69.967,37.3-140.3,75.607-26.056,14.179-54.851,19.491-81.286,19.491a191.065,191.065,0,0,1-52.8-7.286c-25.094-7.364-43.965-19.517-50.486-32.511A35.045,35.045,0,0,1,1279.419,859.521Z" fill="#1a7e22"/>
                  <g id="Group_3214" data-name="Group 3214" clip-path="url(#clip-path-15)">
                    <g id="Group_3213" data-name="Group 3213" style="isolation: isolate">
                      <path id="Path_2785" data-name="Path 2785" d="M1608.241,809.762v10.3c-.691.369-69.967,37.3-140.3,75.607-26.056,14.179-54.851,19.491-81.286,19.491a191.065,191.065,0,0,1-52.8-7.286c-25.094-7.364-43.965-19.517-50.486-32.511a35.045,35.045,0,0,1-3.946-15.846v-10.3a35.045,35.045,0,0,0,3.946,15.846c6.521,12.994,25.392,25.148,50.486,32.511a191.063,191.063,0,0,0,52.8,7.287c26.435,0,55.23-5.313,81.286-19.491,70.333-38.307,139.609-75.239,140.3-75.608" fill="#1a7e22"/>
                    </g>
                  </g>
                </g>
                <g id="Group_3216" data-name="Group 3216">
                  <path id="Path_2787" data-name="Path 2787" d="M1608.255,808.539l1.111.624-1.125.6c-.691.369-69.967,37.3-140.3,75.608-26.056,14.178-54.851,19.491-81.286,19.491a191.063,191.063,0,0,1-52.8-7.287c-25.094-7.363-43.965-19.517-50.486-32.511-6.941-13.809-4.691-28.077,6.48-41.288a78.274,78.274,0,0,1,18.044-15.261c-4.961-3.032-26.341-17.084-29.526-35.963-1.682-9.911,1.83-19.619,10.424-28.855,19.943-21.4,50.025-33.16,86.995-33.988q2.207-.05,4.387-.05c28.63,0,53.3,6.233,63.736,10.1C1465.65,727.81,1606.831,807.736,1608.255,808.539Zm-141.073,75.595c65.439-35.632,129.97-70.079,139.2-75.009-13.353-7.542-142.415-80.423-163.035-88.054-9.639-3.567-34.746-10-63.324-10-1.4,0-2.792.013-4.2.051-25.487.573-61.074,6.853-85.9,33.5-8.3,8.905-11.686,18.23-10.086,27.7,3.484,20.625,29.6,35.441,29.852,35.594l1.1.611-1.1.6a76,76,0,0,0-18.7,15.568c-10.913,12.93-13.028,26.306-6.276,39.759,6.344,12.65,24.89,24.523,49.577,31.771a189.316,189.316,0,0,0,52.357,7.227c26.2,0,54.721-5.259,80.527-19.316" fill="#1a7e22"/>
                </g>
              </g>
            </g>
            <g id="Group_3245" data-name="Group 3245">
              <g id="Group_3244" data-name="Group 3244" style="isolation: isolate">
                <g id="Group_3221" data-name="Group 3221" style="isolation: isolate">
                  <path id="Path_2788" data-name="Path 2788" d="M1957.72,767.774v10.3a28.723,28.723,0,0,1-.4,4.777v-10.3A28.733,28.733,0,0,0,1957.72,767.774Z" fill="#1a7e22"/>
                  <g id="Group_3220" data-name="Group 3220" clip-path="url(#clip-path-16)">
                    <g id="Group_3219" data-name="Group 3219" style="isolation: isolate">
                      <path id="Path_2789" data-name="Path 2789" d="M1957.72,767.774v10.3a28.723,28.723,0,0,1-.4,4.777v-10.3a28.733,28.733,0,0,0,.4-4.777" fill="#1a7e22"/>
                    </g>
                  </g>
                </g>
                <g id="Group_3224" data-name="Group 3224" style="isolation: isolate">
                  <path id="Path_2791" data-name="Path 2791" d="M1956.211,767.775v10.3c0-7.9-3.507-15.674-10.472-23.149-13.692-14.714-39.721-32.473-85.883-33.5-1.44-.034-2.878-.05-4.3-.05-28.542,0-53.6,6.444-63.238,10-20.606,7.631-149.681,80.512-163.021,88.054v-10.3c13.34-7.542,142.415-80.423,163.021-88.054,9.633-3.555,34.7-10,63.238-10,1.424,0,2.862.016,4.3.049,46.162,1.032,72.191,18.79,85.883,33.5C1952.7,752.1,1956.211,759.873,1956.211,767.775Z" fill="#1a7e22"/>
                  <g id="Group_3223" data-name="Group 3223" clip-path="url(#clip-path-17)">
                    <g id="Group_3222" data-name="Group 3222" style="isolation: isolate">
                      <path id="Path_2792" data-name="Path 2792" d="M1956.211,767.775v10.3c0-7.9-3.507-15.674-10.472-23.149-13.692-14.714-39.721-32.473-85.883-33.5-1.44-.034-2.878-.05-4.3-.05-28.542,0-53.6,6.444-63.238,10-20.606,7.631-149.681,80.512-163.021,88.054v-10.3c13.34-7.542,142.415-80.423,163.021-88.054,9.633-3.555,34.7-10,63.238-10,1.424,0,2.862.016,4.3.049,46.162,1.032,72.191,18.79,85.883,33.5,6.965,7.475,10.472,15.247,10.472,23.149" fill="#1a7e22"/>
                    </g>
                  </g>
                </g>
                <g id="Group_3227" data-name="Group 3227" style="isolation: isolate">
                  <path id="Path_2794" data-name="Path 2794" d="M1956.21,767.775v10.3a27.2,27.2,0,0,1-.385,4.546c-3.484,20.625-29.581,35.441-29.852,35.594v-10.3c.271-.153,26.368-14.969,29.852-35.594A27.2,27.2,0,0,0,1956.21,767.775Z" fill="#1a7e22"/>
                  <g id="Group_3226" data-name="Group 3226" clip-path="url(#clip-path-18)">
                    <g id="Group_3225" data-name="Group 3225" style="isolation: isolate">
                      <path id="Path_2795" data-name="Path 2795" d="M1956.21,767.775v10.3a27.2,27.2,0,0,1-.385,4.546,32.591,32.591,0,0,1-3.172,9.342v-10.3a32.592,32.592,0,0,0,3.172-9.342,27.2,27.2,0,0,0,.385-4.546" fill="#1a7e22"/>
                      <path id="Path_2796" data-name="Path 2796" d="M1952.653,781.663v10.3a51.707,51.707,0,0,1-8.37,11.636V793.3a51.712,51.712,0,0,0,8.37-11.637" fill="#1a7e22"/>
                      <path id="Path_2797" data-name="Path 2797" d="M1944.283,793.3v10.3a87.125,87.125,0,0,1-17,13.833v-10.3a87.148,87.148,0,0,0,17-13.832" fill="#1a7e22"/>
                      <path id="Path_2798" data-name="Path 2798" d="M1927.281,807.132v10.3c-.8.5-1.273.763-1.308.783v-10.3c.035-.02.507-.287,1.308-.783" fill="#1a7e22"/>
                    </g>
                  </g>
                </g>
                <g id="Group_3230" data-name="Group 3230" style="isolation: isolate">
                  <path id="Path_2800" data-name="Path 2800" d="M1957.317,772.551v10.3c-1.885,11.147-10.114,20.5-16.675,26.4a90.275,90.275,0,0,1-12.865,9.567v-10.3a90.275,90.275,0,0,0,12.865-9.567C1947.2,793.048,1955.432,783.7,1957.317,772.551Z" fill="#1a7e22"/>
                  <g id="Group_3229" data-name="Group 3229" clip-path="url(#clip-path-19)">
                    <g id="Group_3228" data-name="Group 3228" style="isolation: isolate">
                      <path id="Path_2801" data-name="Path 2801" d="M1957.317,772.551v10.3a34.019,34.019,0,0,1-3.3,9.72v-10.3a34.024,34.024,0,0,0,3.3-9.719" fill="#1a7e22"/>
                      <path id="Path_2802" data-name="Path 2802" d="M1954.015,782.27v10.3a53.8,53.8,0,0,1-8.675,12.075v-10.3a53.8,53.8,0,0,0,8.675-12.075" fill="#1a7e22"/>
                      <path id="Path_2803" data-name="Path 2803" d="M1945.34,794.345v10.3c-1.59,1.7-3.188,3.244-4.7,4.6a90.9,90.9,0,0,1-12.332,9.241v-10.3a90.807,90.807,0,0,0,12.332-9.241c1.51-1.357,3.108-2.9,4.7-4.6" fill="#1a7e22"/>
                      <path id="Path_2804" data-name="Path 2804" d="M1928.31,808.187v10.3q-.291.18-.533.326v-10.3q.242-.145.533-.326" fill="#1a7e22"/>
                    </g>
                  </g>
                </g>
                <g id="Group_3231" data-name="Group 3231">
                  <path id="Path_2806" data-name="Path 2806" d="M1925.973,807.915v10.3l-1.085.612v-10.3Z" fill="#1a7e22"/>
                </g>
                <g id="Group_3232" data-name="Group 3232">
                  <path id="Path_2807" data-name="Path 2807" d="M1925.987,809.125v10.3l-1.1-.6v-10.3Z" fill="#1a7e22"/>
                </g>
                <g id="Group_3233" data-name="Group 3233">
                  <path id="Path_2808" data-name="Path 2808" d="M1627.424,809.762v10.3l-1.111-.6v-10.3Z" fill="#1a7e22"/>
                </g>
                <g id="Group_3236" data-name="Group 3236" style="isolation: isolate">
                  <path id="Path_2809" data-name="Path 2809" d="M1954.814,849.11v10.3c0-8.251-3.387-16.42-10.146-24.418a76.321,76.321,0,0,0-18.681-15.567v-10.3a76.313,76.313,0,0,1,18.681,15.568C1951.427,832.69,1954.814,840.859,1954.814,849.11Z" fill="#1a7e22"/>
                  <g id="Group_3235" data-name="Group 3235" clip-path="url(#clip-path-20)">
                    <g id="Group_3234" data-name="Group 3234" style="isolation: isolate">
                      <path id="Path_2810" data-name="Path 2810" d="M1954.814,849.11v10.3c0-8.251-3.387-16.42-10.146-24.418a76.321,76.321,0,0,0-18.681-15.567v-10.3a76.313,76.313,0,0,1,18.681,15.568c6.759,8,10.146,16.166,10.146,24.417" fill="#1a7e22"/>
                    </g>
                  </g>
                </g>
                <g id="Group_3239" data-name="Group 3239" style="isolation: isolate">
                  <path id="Path_2812" data-name="Path 2812" d="M1954.814,849.11v10.3a33.918,33.918,0,0,1-3.869,15.342c-6.345,12.65-24.877,24.523-49.578,31.771a189.262,189.262,0,0,1-52.357,7.227c-26.2,0-54.723-5.261-80.527-19.316-65.439-35.632-129.969-70.079-139.188-75.009v-10.3c9.219,4.93,73.749,39.377,139.188,75.009,25.8,14.055,54.33,19.316,80.527,19.316a189.3,189.3,0,0,0,52.357-7.226c24.7-7.249,43.233-19.122,49.578-31.772A33.919,33.919,0,0,0,1954.814,849.11Z" fill="#1a7e22"/>
                  <g id="Group_3238" data-name="Group 3238" clip-path="url(#clip-path-21)">
                    <g id="Group_3237" data-name="Group 3237" style="isolation: isolate">
                      <path id="Path_2813" data-name="Path 2813" d="M1954.814,849.11v10.3a33.918,33.918,0,0,1-3.869,15.342l-.066.131v-10.3l.066-.131a33.919,33.919,0,0,0,3.869-15.342" fill="#1a7e22"/>
                      <path id="Path_2814" data-name="Path 2814" d="M1950.879,864.583v10.3a35.026,35.026,0,0,1-5.692,7.92V872.5a35,35,0,0,0,5.692-7.92" fill="#1a7e22"/>
                      <path id="Path_2815" data-name="Path 2815" d="M1945.187,872.5v10.3a64.9,64.9,0,0,1-13.325,10.6V883.1a64.9,64.9,0,0,0,13.325-10.6" fill="#1a7e22"/>
                      <path id="Path_2816" data-name="Path 2816" d="M1931.862,883.1v10.3a125.932,125.932,0,0,1-30.5,13.119,189.262,189.262,0,0,1-52.357,7.227c-26.2,0-54.723-5.261-80.527-19.316-65.439-35.632-129.969-70.079-139.188-75.009v-10.3c9.219,4.93,73.749,39.377,139.188,75.009,25.8,14.055,54.33,19.316,80.527,19.316a189.3,189.3,0,0,0,52.357-7.226,125.972,125.972,0,0,0,30.5-13.12" fill="#1a7e22"/>
                    </g>
                  </g>
                </g>
                <g id="Group_3242" data-name="Group 3242" style="isolation: isolate">
                  <path id="Path_2818" data-name="Path 2818" d="M1956.25,849.229v10.3a35.075,35.075,0,0,1-3.936,15.834c-6.534,12.994-25.4,25.148-50.5,32.511a191.062,191.062,0,0,1-52.8,7.287c-26.436,0-55.23-5.313-81.287-19.492-70.333-38.306-139.608-75.238-140.3-75.607v-10.3c.692.369,69.967,37.3,140.3,75.608,26.057,14.178,54.851,19.491,81.287,19.491a191.062,191.062,0,0,0,52.8-7.287c25.094-7.363,43.965-19.517,50.5-32.511A35.072,35.072,0,0,0,1956.25,849.229Z" fill="#1a7e22"/>
                  <g id="Group_3241" data-name="Group 3241" clip-path="url(#clip-path-22)">
                    <g id="Group_3240" data-name="Group 3240" style="isolation: isolate">
                      <path id="Path_2819" data-name="Path 2819" d="M1956.25,849.229v10.3a35.075,35.075,0,0,1-3.936,15.834l-.056.11v-10.3l.056-.111a35.072,35.072,0,0,0,3.936-15.834" fill="#1a7e22"/>
                      <path id="Path_2820" data-name="Path 2820" d="M1952.258,865.174v10.3a36.273,36.273,0,0,1-5.9,8.216v-10.3a36.268,36.268,0,0,0,5.9-8.215" fill="#1a7e22"/>
                      <path id="Path_2821" data-name="Path 2821" d="M1946.356,873.389v10.3a66.735,66.735,0,0,1-13.692,10.9v-10.3a66.735,66.735,0,0,0,13.692-10.9" fill="#1a7e22"/>
                      <path id="Path_2822" data-name="Path 2822" d="M1932.664,884.289v10.3a127.41,127.41,0,0,1-30.849,13.285,191.062,191.062,0,0,1-52.8,7.287c-26.436,0-55.23-5.313-81.287-19.492-70.333-38.306-139.608-75.238-140.3-75.607v-10.3c.692.369,69.967,37.3,140.3,75.608,26.057,14.178,54.851,19.491,81.287,19.491a191.062,191.062,0,0,0,52.8-7.287,127.372,127.372,0,0,0,30.849-13.285" fill="#1a7e22"/>
                    </g>
                  </g>
                </g>
                <g id="Group_3243" data-name="Group 3243">
                  <path id="Path_2824" data-name="Path 2824" d="M1957.317,772.551c-1.885,11.146-10.114,20.5-16.675,26.395a90.275,90.275,0,0,1-12.865,9.567,78.04,78.04,0,0,1,18.044,15.262c11.171,13.211,13.421,27.479,6.493,41.288-6.534,12.994-25.4,25.148-50.5,32.511a191.062,191.062,0,0,1-52.8,7.287c-26.436,0-55.23-5.313-81.287-19.491-70.333-38.307-139.608-75.239-140.3-75.608l-1.111-.6,1.1-.624c1.423-.8,142.6-80.729,164.363-88.78,10.424-3.867,35.1-10.1,63.722-10.1,1.455,0,2.914.015,4.388.049,36.983.828,67.065,12.586,86.994,33.988C1955.473,752.932,1958.984,762.639,1957.317,772.551Zm-31.33,36.574-1.1-.6,1.084-.611c.272-.153,26.368-14.969,29.853-35.594,1.6-9.465-1.79-18.79-10.087-27.7-13.692-14.714-39.721-32.472-85.883-33.5-1.44-.033-2.878-.049-4.3-.049-28.542,0-53.6,6.443-63.238,10-20.606,7.631-149.681,80.512-163.021,88.054,9.219,4.93,73.75,39.377,139.188,75.009,25.8,14.055,54.33,19.316,80.527,19.316a189.318,189.318,0,0,0,52.358-7.227c24.7-7.248,43.233-19.121,49.577-31.771,6.765-13.453,4.65-26.829-6.277-39.759a76.313,76.313,0,0,0-18.681-15.568" fill="#1a7e22"/>
                </g>
              </g>
            </g>
          </g>
        </g>
      </g>
      <g id="Group_3249" data-name="Group 3249">
        <path id="Path_2825" data-name="Path 2825" d="M1541.094,619.747c31.3,0,58.5,8.458,77.437,16.612,9.625-6.969,37.769-14.447,72.543-14.778q1.116-.012,2.292-.012c23.159,0,63.223,3.527,87.874,25.287,12.106,10.688,17.489,21.657,16,32.6-2.169,15.924-18.681,31.911-49.089,47.492-21.054,10.79-122.934,65.976-129.97,69.785-7.158-3.847-114.379-61.594-144.583-77.9-32.239-17.4-38.488-37.772-33.581-51.021,6.4-17.275,29-38.371,73.234-45.772A167.821,167.821,0,0,1,1541.094,619.747Z" fill="#fff"/>
      </g>
      <g id="Group_3250" data-name="Group 3250">
        <path id="Path_2826" data-name="Path 2826" d="M1380.025,711.071c28.578,0,53.685,6.433,63.324,10,20.62,7.631,149.681,80.512,163.035,88.054-9.232,4.93-73.763,39.377-139.2,75.009-25.806,14.057-54.327,19.316-80.527,19.316a189.355,189.355,0,0,1-52.357-7.226c-24.687-7.249-43.233-19.122-49.578-31.772-6.751-13.453-4.636-26.829,6.277-39.759a76,76,0,0,1,18.7-15.568l1.1-.6-1.1-.611c-.257-.153-26.368-14.969-29.852-35.594-1.6-9.465,1.789-18.79,10.086-27.7,24.823-26.65,60.41-32.931,85.9-33.5C1377.232,711.084,1378.629,711.071,1380.025,711.071Z" fill="#fff"/>
      </g>
      <g id="Group_3272" data-name="Group 3272">
        <g id="Group_3271" data-name="Group 3271" style="isolation: isolate">
          <g id="Group_3255" data-name="Group 3255" style="isolation: isolate">
            <g id="Group_3254" data-name="Group 3254" clip-path="url(#clip-path-23)">
              <g id="Group_3253" data-name="Group 3253">
                <g id="Group_3251" data-name="Group 3251">
                  <path id="Path_2827" data-name="Path 2827" d="M1822.879,971.6l-.817,13.518c1.984-32.817-24.543-60.466-54.522-80.328l.817-13.518c29.979,19.861,56.506,47.511,54.522,80.328" fill="#858585"/>
                </g>
                <g id="Group_3252" data-name="Group 3252">
                  <path id="Path_2828" data-name="Path 2828" d="M1822.879,971.6l-.817,13.518c1.984-32.817-24.543-60.466-54.522-80.328l.817-13.518c29.979,19.861,56.506,47.511,54.522,80.328" fill="#1a7e22"/>
                </g>
              </g>
            </g>
          </g>
          <g id="Group_3260" data-name="Group 3260" style="isolation: isolate">
            <g id="Group_3259" data-name="Group 3259" clip-path="url(#clip-path-24)">
              <g id="Group_3258" data-name="Group 3258">
                <g id="Group_3256" data-name="Group 3256">
                  <path id="Path_2830" data-name="Path 2830" d="M1896.1,1007.11l-.817,13.519a119.872,119.872,0,0,1-3.02,20.371l.765-13.853a116.557,116.557,0,0,0,3.072-20.037" fill="#949494"/>
                </g>
                <g id="Group_3257" data-name="Group 3257">
                  <path id="Path_2831" data-name="Path 2831" d="M1896.1,1007.11l-.817,13.519a119.872,119.872,0,0,1-3.02,20.371l.765-13.853a116.557,116.557,0,0,0,3.072-20.037" fill="#1a7e22"/>
                </g>
              </g>
            </g>
          </g>
          <g id="Group_3264" data-name="Group 3264">
            <g id="Group_3261" data-name="Group 3261">
              <path id="Path_2833" data-name="Path 2833" d="M1768.357,891.276c103.281,29.371,139.709,72.938,124.67,135.871L1792.262,1027C1851.913,969.652,1814.154,921.617,1768.357,891.276Z" fill="#ededed"/>
            </g>
            <g id="Group_3262" data-name="Group 3262">
              <path id="Path_2834" data-name="Path 2834" d="M1768.357,891.276c103.281,29.371,139.709,72.938,124.67,135.871L1792.262,1027C1851.913,969.652,1814.154,921.617,1768.357,891.276Z" fill="#fff"/>
            </g>
            <g id="Group_3263" data-name="Group 3263">
              <path id="Path_2835" data-name="Path 2835" d="M1768.357,891.276c103.281,29.371,139.709,72.938,124.67,135.871L1792.262,1027C1851.913,969.652,1814.154,921.617,1768.357,891.276Z" fill="none" stroke="#1a7e22" stroke-linejoin="round" stroke-width="1"/>
            </g>
          </g>
          <g id="Group_3267" data-name="Group 3267">
            <g id="Group_3265" data-name="Group 3265">
              <path id="Path_2836" data-name="Path 2836" d="M1772.262,893c53.831,15.724,111,53,112,113h-66C1849.262,965,1821.262,919,1772.262,893Z" fill="#ededed"/>
            </g>
            <g id="Group_3266" data-name="Group 3266">
              <path id="Path_2837" data-name="Path 2837" d="M1772.262,893c53.831,15.724,111,53,112,113h-66C1849.262,965,1821.262,919,1772.262,893Z" fill="#ebf4d8"/>
            </g>
          </g>
          <g id="Group_3270" data-name="Group 3270">
            <g id="Group_3268" data-name="Group 3268">
              <path id="Path_2838" data-name="Path 2838" d="M1893.262,1027.419l-.819,14.229-101.016.352.085-15Z" fill="#8c8c8c"/>
            </g>
            <g id="Group_3269" data-name="Group 3269">
              <path id="Path_2839" data-name="Path 2839" d="M1893.262,1027.419l-.819,14.229-101.016.352.085-15Z" fill="#1a7e22"/>
            </g>
          </g>
        </g>
      </g>
      <g id="Group_3273" data-name="Group 3273">
        <path id="Path_2840" data-name="Path 2840" d="M1855.553,711.073c1.425,0,2.863.016,4.3.049,46.162,1.032,72.191,18.79,85.883,33.5,8.3,8.905,11.686,18.23,10.086,27.7-3.484,20.625-29.581,35.441-29.852,35.594l-1.084.611,1.1.6a76.313,76.313,0,0,1,18.681,15.568c10.927,12.93,13.042,26.306,6.277,39.759-6.345,12.65-24.877,24.523-49.578,31.772a189.3,189.3,0,0,1-52.357,7.226c-26.2,0-54.723-5.261-80.527-19.316-65.439-35.632-129.969-70.079-139.188-75.009,13.34-7.541,142.415-80.423,163.021-88.054C1801.949,717.516,1827.012,711.073,1855.553,711.073Z" fill="#fff"/>
      </g>
      <path id="Path_2841" data-name="Path 2841" d="M1606.384,809.125s-113.035-64.493-130.39-71-84.084-21.828-121.069,18.427c-25.769,28.048,15.778,51.589,15.778,51.589s-33.133,18.532-19.985,45.078,87.871,46,145.152,16.028C1552.815,839.441,1606.384,809.125,1606.384,809.125Z" fill="#ebf4d8"/>
      <path id="Path_2842" data-name="Path 2842" d="M1629.3,809.125s113.035-64.493,130.39-71,84.084-21.828,121.069,18.427c25.77,28.048-15.777,51.589-15.777,51.589s33.132,18.532,19.984,45.078-87.871,46-145.152,16.028C1682.864,839.441,1629.3,809.125,1629.3,809.125Z" fill="#ebf4d8"/>
      <path id="Path_2843" data-name="Path 2843" d="M1618.178,796.733s89.781-47.637,107.827-57.481,63.437-37.187,27.344-71.093-118.124-22.421-133.983-9.3c-13.124-6.016-47.03-19.688-86.951-12.578s-56.328,27.89-60.7,40.468,2.188,30.624,27.891,45.39S1618.178,796.733,1618.178,796.733Z" fill="#ebf4d8"/>
    </g>
    <g id="Group_3309" data-name="Group 3309">
      <g id="Group_3307" data-name="Group 3307">
        <g id="Group_3306" data-name="Group 3306" style="isolation: isolate">
          <g id="Group_3277" data-name="Group 3277" style="isolation: isolate">
            <path id="Path_2844" data-name="Path 2844" d="M1797.492,936.573v10.3c0-12.6-9.108-28.533-35.069-42.546-30.2-16.306-137.425-74.053-144.583-77.9v-10.3c7.158,3.847,114.379,61.594,144.583,77.9C1788.384,908.04,1797.492,923.979,1797.492,936.573Z" fill="#1a7e22"/>
            <g id="Group_3276" data-name="Group 3276" clip-path="url(#clip-path-25)">
              <g id="Group_3275" data-name="Group 3275" style="isolation: isolate">
                <path id="Path_2845" data-name="Path 2845" d="M1797.492,936.573v10.3c0-12.6-9.108-28.533-35.069-42.546-30.2-16.306-137.425-74.053-144.583-77.9v-10.3c7.158,3.847,114.379,61.594,144.583,77.9,25.961,14.013,35.069,29.952,35.069,42.546" fill="#1a7e22"/>
              </g>
            </g>
          </g>
          <g id="Group_3280" data-name="Group 3280" style="isolation: isolate">
            <path id="Path_2847" data-name="Path 2847" d="M1438.538,947.274v-10.3a26.4,26.4,0,0,1,.243-3.567c2.169-15.924,18.695-31.9,49.089-47.492,21.054-10.79,122.934-65.976,129.97-69.785v10.3c-7.036,3.809-108.916,58.995-129.97,69.785-30.394,15.593-46.92,31.568-49.089,47.492A26.391,26.391,0,0,0,1438.538,947.274Z" fill="#1a7e22"/>
            <g id="Group_3279" data-name="Group 3279" clip-path="url(#clip-path-26)">
              <g id="Group_3278" data-name="Group 3278" style="isolation: isolate">
                <path id="Path_2848" data-name="Path 2848" d="M1617.84,816.127v10.3c-7.036,3.81-108.916,59-129.97,69.786q-8.169,4.191-15,8.416v-10.3q6.829-4.224,15-8.416c21.054-10.79,122.934-65.976,129.97-69.785" fill="#1a7e22"/>
                <path id="Path_2849" data-name="Path 2849" d="M1472.871,894.328v10.3q-14.361,8.881-22.751,17.871V912.2q8.377-8.977,22.751-17.871" fill="#1a7e22"/>
                <path id="Path_2850" data-name="Path 2850" d="M1450.12,912.2v10.3a49.979,49.979,0,0,0-8.147,11.3v-10.3a49.982,49.982,0,0,1,8.147-11.306" fill="#1a7e22"/>
                <path id="Path_2851" data-name="Path 2851" d="M1441.973,923.505v10.3a31.063,31.063,0,0,0-3.192,9.9,26.391,26.391,0,0,0-.243,3.566v-10.3a26.4,26.4,0,0,1,.243-3.567,31.049,31.049,0,0,1,3.192-9.9" fill="#1a7e22"/>
              </g>
            </g>
          </g>
          <g id="Group_3283" data-name="Group 3283" style="isolation: isolate">
            <path id="Path_2853" data-name="Path 2853" d="M1772.875,982.428v-10.3c12.4-8.472,19.867-18.27,23.129-27.076a24.344,24.344,0,0,0,1.488-8.479v10.3a24.345,24.345,0,0,1-1.488,8.479C1792.742,964.157,1785.274,973.956,1772.875,982.428Z" fill="#1a7e22"/>
            <g id="Group_3282" data-name="Group 3282" clip-path="url(#clip-path-27)">
              <g id="Group_3281" data-name="Group 3281" style="isolation: isolate">
                <path id="Path_2854" data-name="Path 2854" d="M1797.492,936.573v10.3a24.349,24.349,0,0,1-1.488,8.475,40.006,40.006,0,0,1-1.854,4.219v-10.3a40.02,40.02,0,0,0,1.854-4.22,24.348,24.348,0,0,0,1.488-8.475" fill="#1a7e22"/>
                <path id="Path_2855" data-name="Path 2855" d="M1794.15,949.268v10.3a53.511,53.511,0,0,1-8.659,12.141v-10.3a53.487,53.487,0,0,0,8.659-12.14" fill="#1a7e22"/>
                <path id="Path_2856" data-name="Path 2856" d="M1785.491,961.408v10.3a77.87,77.87,0,0,1-16.039,12.941v-10.3a77.87,77.87,0,0,0,16.039-12.942" fill="#1a7e22"/>
              </g>
            </g>
          </g>
          <g id="Group_3286" data-name="Group 3286" style="isolation: isolate">
            <path id="Path_2858" data-name="Path 2858" d="M1617.172,987.029v-10.3c.107-.074.212-.149.315-.224v10.3C1617.384,986.88,1617.279,986.954,1617.172,987.029Z" fill="#1a7e22"/>
            <g id="Group_3285" data-name="Group 3285" clip-path="url(#clip-path-28)">
              <g id="Group_3284" data-name="Group 3284" style="isolation: isolate">
                <path id="Path_2859" data-name="Path 2859" d="M1617.487,976.5v10.3q-.674.488-1.466.978v-10.3q.792-.491,1.466-.978" fill="#1a7e22"/>
              </g>
            </g>
          </g>
          <g id="Group_3289" data-name="Group 3289" style="isolation: isolate">
            <path id="Path_2861" data-name="Path 2861" d="M1617.172,987.029c-7.408,5.159-24.868,10.552-47.577,13.085v-10.3c22.709-2.533,40.169-7.926,47.577-13.085v10.3Z" fill="#1a7e22"/>
            <g id="Group_3288" data-name="Group 3288" clip-path="url(#clip-path-29)">
              <g id="Group_3287" data-name="Group 3287" style="isolation: isolate">
                <path id="Path_2862" data-name="Path 2862" d="M1617.487,976.5v10.3q-.674.488-1.466.978v-10.3q.792-.491,1.466-.978" fill="#1a7e22"/>
                <path id="Path_2863" data-name="Path 2863" d="M1616.021,977.479v10.3c-10.8,6.673-37.925,13.484-71.077,13.8-.678.006-1.369.009-2.08.009-23.16,0-63.359-3.456-88.086-25.284-10.792-9.527-16.24-19.277-16.24-29.034v-10.3c0,9.757,5.448,19.507,16.24,29.034,24.727,21.828,64.926,25.284,88.086,25.284.711,0,1.4,0,2.08-.009,33.152-.316,60.278-7.127,71.077-13.8" fill="#1a7e22"/>
              </g>
            </g>
          </g>
          <g id="Group_3292" data-name="Group 3292" style="isolation: isolate">
            <path id="Path_2865" data-name="Path 2865" d="M1454.778,976.308c-10.791-9.527-16.24-19.276-16.24-29.032v-10.3c0,9.755,5.449,19.505,16.24,29.031,24.727,21.828,64.926,25.284,88.086,25.284.711,0,1.4,0,2.08-.009q1.436-.013,2.854-.043v10.3q-1.419.03-2.854.044c-.678.006-1.369.009-2.08.009C1519.7,1001.592,1479.505,998.136,1454.778,976.308Z" fill="#1a7e22"/>
            <g id="Group_3291" data-name="Group 3291" clip-path="url(#clip-path-30)">
              <g id="Group_3290" data-name="Group 3290" style="isolation: isolate">
                <path id="Path_2866" data-name="Path 2866" d="M1616.021,977.479v10.3c-10.8,6.673-37.925,13.484-71.077,13.8-.678.006-1.369.009-2.08.009-23.16,0-63.359-3.456-88.086-25.284-10.792-9.527-16.24-19.277-16.24-29.034v-10.3c0,9.757,5.448,19.507,16.24,29.034,24.727,21.828,64.926,25.284,88.086,25.284.711,0,1.4,0,2.08-.009,33.152-.316,60.278-7.127,71.077-13.8" fill="#1a7e22"/>
              </g>
            </g>
          </g>
          <g id="Group_3295" data-name="Group 3295" style="isolation: isolate">
            <path id="Path_2868" data-name="Path 2868" d="M1437.033,947.291v-10.3c0,10.149,5.613,20.24,16.715,30.049,21.734,19.186,56.423,25.78,88.581,25.78,33.734,0,64.683-7.258,74.955-14.85v10.3c-10.272,7.592-41.221,14.85-74.955,14.85-32.158,0-66.847-6.594-88.581-25.78C1442.646,967.531,1437.033,957.44,1437.033,947.291Z" fill="#1a7e22"/>
            <g id="Group_3294" data-name="Group 3294" clip-path="url(#clip-path-31)">
              <g id="Group_3293" data-name="Group 3293" style="isolation: isolate">
                <path id="Path_2869" data-name="Path 2869" d="M1617.284,977.966v10.3q-.735.543-1.61,1.084v-10.3q.875-.54,1.61-1.084" fill="#1a7e22"/>
                <path id="Path_2870" data-name="Path 2870" d="M1615.674,979.05v10.3c-11.622,7.184-41.221,13.766-73.345,13.766-32.158,0-66.847-6.594-88.581-25.78-11.1-9.809-16.715-19.9-16.715-30.049v-10.3c0,10.149,5.613,20.24,16.715,30.049,21.734,19.186,56.423,25.78,88.581,25.78,32.124,0,61.723-6.582,73.345-13.766" fill="#1a7e22"/>
              </g>
            </g>
          </g>
          <g id="Group_3298" data-name="Group 3298" style="isolation: isolate">
            <path id="Path_2872" data-name="Path 2872" d="M1693.466,1003.413c-30.688-.255-57.342-8.577-75.979-16.608V976.5c18.637,8.031,45.291,16.353,75.979,16.608v10.3Z" fill="#1a7e22"/>
            <g id="Group_3297" data-name="Group 3297" clip-path="url(#clip-path-32)">
              <g id="Group_3296" data-name="Group 3296" style="isolation: isolate">
                <path id="Path_2873" data-name="Path 2873" d="M1769.452,974.35v10.3c-11.594,7.173-26.994,13.178-46.682,16.471a168.622,168.622,0,0,1-27.854,2.295c-31.3,0-58.5-8.457-77.429-16.614V976.5c18.93,8.157,46.13,16.614,77.429,16.614a168.622,168.622,0,0,0,27.854-2.295c19.688-3.293,35.088-9.3,46.682-16.47" fill="#1a7e22"/>
              </g>
            </g>
          </g>
          <g id="Group_3301" data-name="Group 3301" style="isolation: isolate">
            <path id="Path_2875" data-name="Path 2875" d="M1693.466,1003.413v-10.3q.725.006,1.45.006a168.622,168.622,0,0,0,27.854-2.295c21.693-3.628,38.18-10.548,50.1-18.7v10.3c-11.925,8.147-28.412,15.068-50.1,18.7a168.622,168.622,0,0,1-27.854,2.295Q1694.19,1003.419,1693.466,1003.413Z" fill="#1a7e22"/>
            <g id="Group_3300" data-name="Group 3300" clip-path="url(#clip-path-33)">
              <g id="Group_3299" data-name="Group 3299" style="isolation: isolate">
                <path id="Path_2876" data-name="Path 2876" d="M1785.491,961.408v10.3a77.87,77.87,0,0,1-16.039,12.941v-10.3a77.87,77.87,0,0,0,16.039-12.942" fill="#1a7e22"/>
                <path id="Path_2877" data-name="Path 2877" d="M1769.452,974.35v10.3c-11.594,7.173-26.994,13.178-46.682,16.471a168.622,168.622,0,0,1-27.854,2.295c-31.3,0-58.5-8.457-77.429-16.614V976.5c18.93,8.157,46.13,16.614,77.429,16.614a168.622,168.622,0,0,0,27.854-2.295c19.688-3.293,35.088-9.3,46.682-16.47" fill="#1a7e22"/>
              </g>
            </g>
          </g>
          <g id="Group_3302" data-name="Group 3302">
            <path id="Path_2879" data-name="Path 2879" d="M1763.183,892.8c33.024,17.835,39.342,38.919,34.244,52.7-6.534,17.656-29.513,39.2-74.386,46.7a169.92,169.92,0,0,1-28.117,2.318c-31.344,0-58.579-8.395-77.64-16.561-10.272,7.592-41.221,14.85-74.955,14.85-32.158,0-66.847-6.594-88.581-25.78-12.473-11.019-18.018-22.4-16.459-33.81,2.237-16.408,19.007-32.74,49.862-48.549,21.691-11.122,129.238-69.391,130.322-69.977C1618.219,814.7,1731.921,875.937,1763.183,892.8ZM1796,945.048c4.907-13.249-1.342-33.619-33.581-51.021-30.2-16.306-137.425-74.053-144.583-77.9-7.036,3.809-108.916,58.995-129.97,69.785-30.394,15.593-46.92,31.568-49.089,47.492-1.492,10.943,3.89,21.912,16,32.6,24.727,21.828,64.926,25.284,88.086,25.284.711,0,1.4,0,2.08-.009,34.774-.331,62.918-7.809,71.757-14.676,19.716,8.055,46.917,16.512,78.215,16.512a168.622,168.622,0,0,0,27.854-2.295c44.249-7.4,66.835-28.5,73.234-45.772" fill="#1a7e22"/>
          </g>
          <g id="Group_3305" data-name="Group 3305" style="isolation: isolate">
            <path id="Path_2880" data-name="Path 2880" d="M1798.994,936.58v10.3a25.656,25.656,0,0,1-1.567,8.927c-6.534,17.656-29.513,39.2-74.386,46.7a170.033,170.033,0,0,1-28.117,2.318c-31.344,0-58.579-8.4-77.64-16.561v-10.3c19.061,8.166,46.3,16.561,77.64,16.561a169.92,169.92,0,0,0,28.117-2.318c44.873-7.5,67.852-29.046,74.386-46.7A25.657,25.657,0,0,0,1798.994,936.58Z" fill="#1a7e22"/>
            <g id="Group_3304" data-name="Group 3304" clip-path="url(#clip-path-34)">
              <g id="Group_3303" data-name="Group 3303" style="isolation: isolate">
                <path id="Path_2881" data-name="Path 2881" d="M1798.994,936.58v10.3a25.656,25.656,0,0,1-1.567,8.927,41.176,41.176,0,0,1-1.91,4.349v-10.3a41.176,41.176,0,0,0,1.91-4.349,25.657,25.657,0,0,0,1.567-8.927" fill="#1a7e22"/>
                <path id="Path_2882" data-name="Path 2882" d="M1795.517,949.856v10.3a54.855,54.855,0,0,1-8.887,12.461v-10.3a54.86,54.86,0,0,0,8.887-12.462" fill="#1a7e22"/>
                <path id="Path_2883" data-name="Path 2883" d="M1786.63,962.318v10.3a79.477,79.477,0,0,1-16.376,13.217v-10.3a79.472,79.472,0,0,0,16.376-13.216" fill="#1a7e22"/>
                <path id="Path_2884" data-name="Path 2884" d="M1770.254,975.534v10.3c-11.758,7.274-27.338,13.351-47.213,16.675a170.033,170.033,0,0,1-28.117,2.318c-31.344,0-58.579-8.4-77.64-16.561v-10.3c19.061,8.166,46.3,16.561,77.64,16.561a169.92,169.92,0,0,0,28.117-2.318c19.875-3.324,35.455-9.4,47.213-16.675" fill="#1a7e22"/>
              </g>
            </g>
          </g>
        </g>
      </g>
      <g id="Group_3308" data-name="Group 3308">
        <path id="Path_2886" data-name="Path 2886" d="M1617.839,816.127c7.158,3.847,114.38,61.594,144.584,77.9,32.238,17.4,38.488,37.772,33.581,51.021-6.4,17.275-28.985,38.371-73.234,45.772a168.622,168.622,0,0,1-27.854,2.295c-31.3,0-58.5-8.457-77.429-16.614-9.625,6.969-37.769,14.447-72.543,14.778-.678.006-1.369.009-2.08.009-23.16,0-63.359-3.456-88.086-25.284-12.107-10.688-17.489-21.656-16-32.6,2.169-15.924,18.694-31.9,49.089-47.492C1508.924,875.122,1610.8,819.936,1617.839,816.127Z" fill="#fff"/>
      </g>
      <path id="Path_2887" data-name="Path 2887" d="M1618.143,816.127s-93.983,50.945-113.011,60.7-66.884,36.854-28.829,70.457,124.543,22.22,141.264,9.213c13.838,5.962,49.586,19.511,91.677,12.465s59.388-27.64,64-40.1-2.307-30.351-29.406-44.984S1618.143,816.127,1618.143,816.127Z" fill="#ebf4d8"/>
    </g>
    <rect id="Rectangle_270" data-name="Rectangle 270" width="231.957" height="231.957" transform="translate(1499.721 761.215)" fill="none"/>
    <rect id="Rectangle_271" data-name="Rectangle 271" width="231.957" height="231.957" transform="translate(1703.498 655.871)" fill="none"/>
    <rect id="Rectangle_272" data-name="Rectangle 272" width="231.957" height="231.957" transform="translate(1306.941 665.652)" fill="none"/>
    <rect id="Rectangle_273" data-name="Rectangle 273" width="231.957" height="231.957" transform="translate(1513.278 555.482)" fill="none"/>
  </g>
</svg>
