<svg xmlns="http://www.w3.org/2000/svg" width="22.646" height="27" viewBox="0 0 22.646 27">
  <g id="_27_PDF_File_type_Adobe" data-name="27, PDF, File type, Adobe" transform="translate(-3332.677 -526)">
    <g id="Group_362" data-name="Group 362">
      <path id="Path_3189" data-name="Path 3189" d="M3351.376,526l3.932,3.944-.015.015-3.883,0-.036-3.959Z" fill="#f2f2f2"></path>
      <path id="Path_3190" data-name="Path 3190" d="M3340.822,532.229a.971.971,0,0,1-1.06,1.1,1.294,1.294,0,0,1-.246-.014v-2.049a1.448,1.448,0,0,1,.321-.029A.9.9,0,0,1,3340.822,532.229Z" fill="#f2f2f2"></path>
      <path id="Path_3191" data-name="Path 3191" d="M3337.652,531.685c0,.321-.232.512-.608.512a1.072,1.072,0,0,1-.237-.019v-.925a1.267,1.267,0,0,1,.292-.027C3337.453,531.226,3337.652,531.4,3337.652,531.685Z" fill="#f2f2f2"></path>
      <path id="Path_3192" data-name="Path 3192" d="M3335.29,528.758h12.194v7.04h-14.807v-7.04h2.613Z" fill="#f2f2f2"></path>
      <path id="Path_3193" data-name="Path 3193" d="M3345.643,539.433a9.529,9.529,0,0,1-.458,2.157,3.913,3.913,0,0,1-.484-1.919c0-.84.272-1.07.484-1.07S3345.634,538.7,3345.643,539.433Z" fill="#d83922"></path>
      <path id="Path_3194" data-name="Path 3194" d="M3350.733,545.807c0,.966-1.75.572-2.825-.452C3347.908,545.355,3350.733,544.843,3350.733,545.807Z" fill="#d83922"></path>
      <path id="Path_3195" data-name="Path 3195" d="M3340.582,548.986c-.866-.518,1.818-2.114,2.3-2.165C3342.884,546.821,3341.489,549.528,3340.582,548.986Z" fill="#d83922"></path>
      <path id="Path_3196" data-name="Path 3196" d="M3345.592,543.178a12.645,12.645,0,0,0,1.469,2,11.5,11.5,0,0,0-1.242.254,6.7,6.7,0,0,0-1.305.434l.356-.8C3345.227,544.265,3345.592,543.178,3345.592,543.178Z" fill="#d83922"></path>
      <path id="Path_3197" data-name="Path 3197" d="M3355.323,529.962V553H3335.29V535.8h12.194v-7.04H3335.29V526h16.083l0,0,0,0,.037,3.959,3.883,0,.015-.014Z" fill="#d83922"></path>
      <path id="Path_3198" data-name="Path 3198" d="M3342.884,546.821c-.484.051-3.168,1.647-2.3,2.165C3341.489,549.528,3342.884,546.821,3342.884,546.821Zm5.024-1.466c1.075,1.024,2.825,1.418,2.825.452S3347.908,545.355,3347.908,545.355Zm-.847-.181a12.645,12.645,0,0,1-1.469-2s-.365,1.087-.722,1.885l-.356.8a6.7,6.7,0,0,1,1.305-.434A11.5,11.5,0,0,1,3347.061,545.174Zm-1.876-3.584a9.529,9.529,0,0,0,.458-2.157c-.009-.73-.246-.832-.458-.832s-.484.23-.484,1.07A3.913,3.913,0,0,0,3345.185,541.59Zm.586,1.1a11.085,11.085,0,0,0,1.783,2.352,12.649,12.649,0,0,1,2.173-.153c1.75-.042,1.827.942,1.834,1.027s.077.867-1.315.918a4.762,4.762,0,0,1-2.837-1.4s-.594.094-1.086.212-2.072.552-2.072.552a19.968,19.968,0,0,1-1.5,2.207c-1.036,1.359-2.2,1.258-2.528.808-.385-.523-.088-1.045.642-1.724a8.521,8.521,0,0,1,2.415-1.243s.34-.611.838-1.777.874-2.338.874-2.338a8.22,8.22,0,0,1-.588-2.072c-.108-1.061.011-1.775.826-1.784s1.07.6,1.1,1.665A10.434,10.434,0,0,1,3345.771,542.694Z" fill="#fff"></path>
      <g id="Group_361" data-name="Group 361">
        <path id="Path_3199" data-name="Path 3199" d="M3343.9,531.313v-.6h-1.864v3.129h.666v-1.265h1.132v-.533H3342.7v-.732Z" fill="#ab302f"></path>
        <path id="Path_3200" data-name="Path 3200" d="M3341.044,531.025a2.062,2.062,0,0,0-1.3-.334,6.565,6.565,0,0,0-.972.065v3.076a6.788,6.788,0,0,0,.819.046,2.268,2.268,0,0,0,1.453-.4,1.592,1.592,0,0,0,.524-1.268A1.384,1.384,0,0,0,3341.044,531.025Zm-1.32,2.3a2.259,2.259,0,0,1-.283-.014v-2.049a2.7,2.7,0,0,1,.358-.029.9.9,0,0,1,.985.995A.971.971,0,0,1,3339.724,533.326Z" fill="#ab302f"></path>
        <path id="Path_3201" data-name="Path 3201" d="M3338.019,530.942a1.59,1.59,0,0,0-.986-.251,6.079,6.079,0,0,0-.987.065v3.086h.732v-1.116a2.1,2.1,0,0,0,.256.014,1.472,1.472,0,0,0,1.025-.33,1,1,0,0,0,.291-.743A.912.912,0,0,0,3338.019,530.942Zm-.989,1.255a1.262,1.262,0,0,1-.252-.019v-.925a1.555,1.555,0,0,1,.307-.027c.353,0,.553.171.553.459C3337.638,532.006,3337.406,532.2,3337.03,532.2Z" fill="#ab302f"></path>
      </g>
    </g>
  </g>
</svg>
