<svg xmlns="http://www.w3.org/2000/svg" width="25.794" height="24" viewBox="0 0 25.794 24">
  <g id="Group_366" data-name="Group 366" transform="translate(-3426.603 -527.5)">
    <path id="Path_3215" data-name="Path 3215" d="M3452.4,533.49h-19.845v-4.82a1.17,1.17,0,0,1,1.17-1.17h17.486a1.17,1.17,0,0,1,1.169,1.17v4.82Z" fill="#56aadc"/>
    <rect id="Rectangle_285" data-name="Rectangle 285" width="19.845" height="6.01" transform="translate(3432.552 533.49)" fill="#3b88c6"/>
    <rect id="Rectangle_286" data-name="Rectangle 286" width="19.845" height="6.01" transform="translate(3432.552 539.5)" fill="#206db4"/>
    <path id="Path_3216" data-name="Path 3216" d="M3451.228,551.5h-17.486a1.171,1.171,0,0,1-1.17-1.17v-4.82H3452.4v4.82A1.17,1.17,0,0,1,3451.228,551.5Z" fill="#095098"/>
    <path id="Path_3217" data-name="Path 3217" d="M3438.582,546.055h-10.689a1.3,1.3,0,0,1-1.29-1.291V534.236a1.3,1.3,0,0,1,1.29-1.291h10.689a1.3,1.3,0,0,1,1.291,1.291v10.528A1.287,1.287,0,0,1,3438.582,546.055Z" fill="#3177b9"/>
    <g id="Group_365" data-name="Group 365">
      <path id="Path_3218" data-name="Path 3218" d="M3430.475,543.211l-1.8-7.24h1.432l.706,3.287c.181.887.363,1.795.484,2.521h.02c.121-.766.323-1.613.524-2.541l.787-3.267h1.412l.726,3.327c.181.868.342,1.654.443,2.441h.02c.121-.807.3-1.614.505-2.5l.766-3.267h1.371l-1.976,7.24h-1.452l-.766-3.408c-.182-.807-.323-1.493-.424-2.279h-.02a21.316,21.316,0,0,1-.484,2.3l-.847,3.408h-1.432Z" fill="#fff"/>
    </g>
    <path id="Path_3219" data-name="Path 3219" d="M3439.873,534.115v10.649a1.3,1.3,0,0,1-1.291,1.291h-6.01V547.2h7.1a1.3,1.3,0,0,0,1.291-1.291V535.386A1.266,1.266,0,0,0,3439.873,534.115Z" fill="#020000" opacity="0.2" style="isolation: isolate"/>
  </g>
</svg>
