<svg xmlns="http://www.w3.org/2000/svg" width="25.794" height="24" viewBox="0 0 25.794 24">
  <g id="Group_396" data-name="Group 396" transform="translate(-3476.603 -527.5)">
    <rect id="Rectangle_291" data-name="Rectangle 291" width="9.943" height="6.01" transform="translate(3492.455 533.49)" fill="#28a775"/>
    <rect id="Rectangle_292" data-name="Rectangle 292" width="9.943" height="6.01" transform="translate(3492.455 539.5)" fill="#168750"/>
    <rect id="Rectangle_293" data-name="Rectangle 293" width="9.923" height="6.01" transform="translate(3482.532 533.49)" fill="#168750"/>
    <path id="Path_3386" data-name="Path 3386" d="M3492.455,545.51V539.5h-9.9v10.83a1.17,1.17,0,0,0,1.17,1.17h17.486a1.17,1.17,0,0,0,1.169-1.17v-4.82Z" fill="#176a46"/>
    <path id="Path_3387" data-name="Path 3387" d="M3501.208,527.5h-8.774v6.01h9.963v-4.84A1.2,1.2,0,0,0,3501.208,527.5Z" fill="#50bd8d"/>
    <path id="Path_3388" data-name="Path 3388" d="M3492.455,527.5h-8.713a1.171,1.171,0,0,0-1.17,1.17v4.82h9.9V527.5Z" fill="#28a775"/>
    <path id="Path_3389" data-name="Path 3389" d="M3488.582,546.055h-10.689a1.3,1.3,0,0,1-1.29-1.291V534.236a1.3,1.3,0,0,1,1.29-1.291h10.689a1.3,1.3,0,0,1,1.291,1.291v10.528A1.287,1.287,0,0,1,3488.582,546.055Z" fill="#188f5c"/>
    <g id="Group_395" data-name="Group 395">
      <path id="Path_3390" data-name="Path 3390" d="M3484.75,543.211l-.786-1.432c-.323-.565-.525-.948-.746-1.371h-.021c-.181.423-.363.806-.665,1.371l-.706,1.432h-1.533l2.178-3.65-2.117-3.59h1.553l.786,1.492c.242.444.424.807.6,1.21h.041c.2-.444.343-.766.585-1.21l.786-1.492h1.533l-2.158,3.529,2.239,3.711Z" fill="#fff"/>
    </g>
    <path id="Path_3391" data-name="Path 3391" d="M3490.034,534.115v10.649a1.3,1.3,0,0,1-1.29,1.291h-6.031V547.2h7.1a1.3,1.3,0,0,0,1.29-1.291V535.386A1.249,1.249,0,0,0,3490.034,534.115Z" fill="#020000" opacity="0.2" style="isolation: isolate"/>
  </g>
</svg>
