<svg xmlns="http://www.w3.org/2000/svg" width="24" height="28.752" viewBox="0 0 24 28.752">
  <g id="Group_66" data-name="Group 66" transform="translate(-1246 -2507.124)">
    <g id="Group_64" data-name="Group 64">
      <path id="Path_652" data-name="Path 652" d="M1248.4,2510.676a2.4,2.4,0,0,0-2.4,2.4v20.4a2.4,2.4,0,0,0,2.4,2.4h19.2a2.4,2.4,0,0,0,2.4-2.4v-20.4a2.4,2.4,0,0,0-2.4-2.4h-19.2Z" fill="#e67e22"/>
      <path id="Path_653" data-name="Path 653" d="M1248.4,2509.524a2.4,2.4,0,0,0-2.4,2.4v20.4a2.4,2.4,0,0,0,2.4,2.4h19.2a2.4,2.4,0,0,0,2.4-2.4v-20.4a2.4,2.4,0,0,0-2.4-2.4h-19.2Z" fill="#f39c12"/>
      <path id="Path_654" data-name="Path 654" d="M1248.4,2508.324a2.4,2.4,0,0,0-2.4,2.4v20.4a2.4,2.4,0,0,0,2.4,2.4h19.2a2.4,2.4,0,0,0,2.4-2.4v-20.4a2.4,2.4,0,0,0-2.4-2.4h-19.2Z" fill="#e67e22"/>
      <path id="Path_655" data-name="Path 655" d="M1248.4,2507.124a2.4,2.4,0,0,0-2.4,2.4v20.4a2.4,2.4,0,0,0,2.4,2.4h19.2a2.4,2.4,0,0,0,2.4-2.4v-20.4a2.4,2.4,0,0,0-2.4-2.4h-19.2Z" fill="#f1c40f"/>
    </g>
    <path id="Path_656" data-name="Path 656" d="M1264,2521.524a2.4,2.4,0,0,0-2.4,2.4v4.8a2.4,2.4,0,0,0,4.8,0v-4.8A2.4,2.4,0,0,0,1264,2521.524Zm0,1.2a1.165,1.165,0,0,1,1.2,1.2,1.2,1.2,0,0,1-2.4,0A1.165,1.165,0,0,1,1264,2522.724Zm0,3.6a1.165,1.165,0,0,1,1.2,1.2v1.2a1.2,1.2,0,0,1-2.4,0v-1.2A1.165,1.165,0,0,1,1264,2526.324Z" fill="#f39c12"/>
    <g id="Group_65" data-name="Group 65">
      <path id="Path_657" data-name="Path 657" d="M1261.6,2507.124v12a2.4,2.4,0,0,0,4.8,0v-12Z" fill="#34495e"/>
      <path id="Path_658" data-name="Path 658" d="M1264,2507.124v1.2h1.2v-1.2Zm0,1.2h-1.2v1.2h1.2Zm0,1.2v1.2h1.2v-1.2Zm0,1.2h-1.2v1.2h1.2Zm0,1.2v1.2h1.2v-1.2Zm0,1.2h-1.2v1.2h1.2Zm0,1.2v1.2h1.2v-1.2Zm0,1.2h-1.2v1.2h1.2Zm0,1.2v1.2h1.2v-1.2Zm0,1.2h-1.2v1.2h1.2Zm0,1.2v1.2a1.243,1.243,0,0,0,1.2-1.2Z" fill="#95a5a6"/>
      <path id="Path_659" data-name="Path 659" d="M1262.8,2507.124v1.2h1.2v-1.2Zm0,2.4v1.2h1.2v-1.2Zm0,2.4v1.2h1.2v-1.2Zm0,2.4v1.2h1.2v-1.2Zm0,2.4v1.2h1.2v-1.2Zm0,2.4a1.243,1.243,0,0,0,1.2,1.2v-1.2Z" fill="#ecf0f1"/>
    </g>
    <path id="Path_660" data-name="Path 660" d="M1264,2520.324a2.4,2.4,0,0,0-2.4,2.4v4.8a2.4,2.4,0,1,0,4.8,0v-4.8A2.4,2.4,0,0,0,1264,2520.324Zm0,1.2a1.165,1.165,0,0,1,1.2,1.2,1.2,1.2,0,0,1-2.4,0A1.165,1.165,0,0,1,1264,2521.524Zm0,3.6a1.165,1.165,0,0,1,1.2,1.2v1.2a1.2,1.2,0,1,1-2.4,0v-1.2A1.165,1.165,0,0,1,1264,2525.124Z" fill="#ecf0f1"/>
  </g>
</svg>
