<svg xmlns="http://www.w3.org/2000/svg" width="30" height="15" viewBox="0 0 30 15">
  <g id="Group_40" data-name="Group 40" transform="translate(-1242 -1175)">
    <path id="Path_591" data-name="Path 591" d="M1257.039,1178.75h0Z" fill="#999"/>
    <path id="Path_592" data-name="Path 592" d="M1265.789,1175H1262a6.2,6.2,0,0,1,2.469,3.75h1.32a2.441,2.441,0,0,1,2.461,2.461v2.5a2.508,2.508,0,0,1-2.461,2.539h-8.75a2.575,2.575,0,0,1-2.539-2.539v-2.461h-3.75v2.461a6.3,6.3,0,0,0,6.289,6.289h8.75a6.249,6.249,0,0,0,6.211-6.289v-2.5A6.182,6.182,0,0,0,1265.789,1175Z" fill="#999"/>
    <path id="Path_593" data-name="Path 593" d="M1262.75,1178.75a6.183,6.183,0,0,0-5.711-3.75h-8.75a6.249,6.249,0,0,0-6.289,6.211v2.5a6.315,6.315,0,0,0,6.289,6.289H1252a6.424,6.424,0,0,1-2.508-3.75h-1.2a2.575,2.575,0,0,1-2.539-2.539v-2.5a2.508,2.508,0,0,1,2.539-2.461h8.75a2.441,2.441,0,0,1,2.461,2.461v2.539h3.75v-2.539A6.273,6.273,0,0,0,1262.75,1178.75Z" fill="#999"/>
  </g>
</svg>
